<svg xmlns="http://www.w3.org/2000/svg" viewBox="0 0 960 600" role="img" aria-labelledby="title desc">
  <title id="title">DepthNote mobile mockups</title>
  <desc id="desc">Placeholder illustration for mobile platforms</desc>
  <defs>
    <linearGradient id="phone" x1="0%" y1="0%" x2="100%" y2="100%">
      <stop offset="0%" stop-color="#1e90ff" />
      <stop offset="100%" stop-color="#7f5cff" />
    </linearGradient>
  </defs>
  <rect width="960" height="600" rx="48" fill="#020817" />
  <g transform="translate(220 120)">
    <rect x="0" y="0" width="240" height="360" rx="42" fill="#0b1120" stroke="#1e293b" stroke-width="8" />
    <rect x="24" y="52" width="192" height="256" rx="28" fill="#f8fafc" />
    <rect x="48" y="88" width="144" height="48" rx="16" fill="#1e3a8a" opacity="0.2" />
    <rect x="48" y="152" width="144" height="24" rx="12" fill="#1e3a8a" opacity="0.45" />
    <rect x="48" y="188" width="144" height="24" rx="12" fill="#1e3a8a" opacity="0.35" />
    <rect x="48" y="224" width="144" height="24" rx="12" fill="#1e3a8a" opacity="0.25" />
    <rect x="88" y="312" width="64" height="12" rx="6" fill="#0f172a" opacity="0.4" />
  </g>
  <g transform="translate(500 80)">
    <rect x="0" y="0" width="220" height="440" rx="44" fill="#0b1120" stroke="#1e293b" stroke-width="8" />
    <rect x="22" y="60" width="176" height="320" rx="28" fill="#f8fafc" />
    <rect x="46" y="96" width="128" height="52" rx="16" fill="#1e90ff" opacity="0.35" />
    <rect x="46" y="164" width="128" height="28" rx="14" fill="#1e90ff" opacity="0.5" />
    <rect x="46" y="204" width="128" height="28" rx="14" fill="#1e90ff" opacity="0.4" />
    <rect x="46" y="244" width="128" height="28" rx="14" fill="#1e90ff" opacity="0.3" />
    <rect x="82" y="348" width="56" height="12" rx="6" fill="#0f172a" opacity="0.35" />
  </g>
  <text x="480" y="540" text-anchor="middle" fill="#e2e8f0" font-family="'Segoe UI', 'Helvetica Neue', sans-serif" font-size="32">
    Built for Windows, Android, and iOS
  </text>
</svg>
